# xmcd
#
# Track frame offsets: 
#        150
#        31539
#        66913
#        97390
#        126824
#        156723
#        188446
#        220053
#        247167
#        275508
#        303883
#
# Disc length: 4412 seconds
#
# Revision: 2
# Processed by: cddbd v1.5.2PL0 Copyright (c) Steve Scherf et al.
# Submitted via: ExactAudioCopy v1.0b6
#
DISCID=9e113a0b
DTITLE=G-Man - Avanti
DYEAR=2002
DGENRE=Techno
TTITLE0=Avanti
TTITLE1=Lavender (Petal)
TTITLE2=Lime (Face)
TTITLE3=K.7 (MRI Mix)
TTITLE4=Azur
TTITLE5=Lollipop
TTITLE6=Franz Blau
TTITLE7=Pistazie
TTITLE8=Gelb
TTITLE9=Grape
TTITLE10=Luftblassen
EXTD=
EXTT0=
EXTT1=
EXTT2=
EXTT3=
EXTT4=
EXTT5=
EXTT6=
EXTT7=
EXTT8=
EXTT9=
EXTT10=
PLAYORDER=
